<svg height="512" viewBox="0 0 58 58" width="512" xmlns="http://www.w3.org/2000/svg"><g id="015---Spread-Female-Message" fill="none"><path id="Shape" d="m58 24v26c-.0032948 1.1032019-.8967981 1.9967052-2 2h-2v5c-.000608.3653473-.2004093.7012839-.5211465.8762314-.3207372.1749476-.7113534.1610569-1.0188535-.0362314l-9.46-5.84h-23c-1.1032019-.0032948-1.9967052-.8967981-2-2v-20l22-8h16c1.1032019.0032948 1.9967052.8967981 2 2z" fill="#2fa8cc"/><path id="Shape" d="m42 22v8c-.0032948 1.1032019-.8967981 1.9967052-2 2h-22v-2l22-8z" fill="#3b97d3"/><g fill="#ecf0f1"><circle id="Oval" cx="27" cy="38" r="3"/><circle id="Oval" cx="38" cy="38" r="3"/><circle id="Oval" cx="49" cy="38" r="3"/></g><path id="Shape" d="m40 2v26c-.0032948 1.1032019-.8967981 1.9967052-2 2h-23l-9.463 5.842c-.307675.1958576-.69758019.2086726-1.01745174.0334404-.31987154-.1752322-.51897147-.5107161-.51954826-.8754404v-5h-2c-1.10320187-.0032948-1.9967052-.8967981-2-2v-26c.0032948-1.10320187.89679813-1.9967052 2-2h36c1.1032019.0032948 1.9967052.89679813 2 2z" fill="#f0c419"/><path id="Shape" d="m20 18c-3.8659932 0-7-3.1340068-7-7 0-3.86599325 3.1340068-7 7-7s7 3.13400675 7 7c-.0044086 3.8641657-3.1358343 6.9955914-7 7zm0-12c-2.7614237 0-5 2.23857625-5 5 0 2.7614237 2.2385763 5 5 5s5-2.2385763 5-5c-.0033061-2.76005315-2.2399468-4.99669388-5-5z" fill="#ecf0f1"/><path id="Shape" d="m20 26c-.5522847 0-1-.4477153-1-1v-8c0-.5522847.4477153-1 1-1s1 .4477153 1 1v8c0 .5522847-.4477153 1-1 1z" fill="#ecf0f1"/><path id="Shape" d="m23 23h-6c-.5522847 0-1-.4477153-1-1s.4477153-1 1-1h6c.5522847 0 1 .4477153 1 1s-.4477153 1-1 1z" fill="#ecf0f1"/></g></svg>