<svg height="512" viewBox="0 0 60 60" width="512" xmlns="http://www.w3.org/2000/svg"><g id="015---Spread-Female-Message" fill="none"><g id="Layer_3" transform="translate(1 1)"><rect id="Rectangle-path" fill="#ffdc00" height="30" rx="2" width="40"/><path id="Shape" d="m38 0h-3c1.1032019.0032948 1.9967052.89679813 2 2v26c-.0032948 1.1032019-.8967981 1.9967052-2 2h3c1.1032019-.0032948 1.9967052-.8967981 2-2v-26c-.0032948-1.10320187-.8967981-1.9967052-2-2z" fill="#fec108"/><path id="Shape" d="m15 30-9.46 5.84c-.30750013.1972883-.6981163.211179-1.01885352.0362314-.32073721-.1749475-.52053849-.5108841-.52114648-.8762314v-5z" fill="#fec108"/><path id="Shape" d="m58 24v26c-.0032948 1.1032019-.8967981 1.9967052-2 2h-36c-1.1032019-.0032948-1.9967052-.8967981-2-2v-20h20c1.1032019-.0032948 1.9967052-.8967981 2-2v-6h16c1.1032019.0032948 1.9967052.8967981 2 2z" fill="#02a9f4"/><path id="Shape" d="m56 22h-3c1.1032019.0032948 1.9967052.8967981 2 2v26c-.0032948 1.1032019-.8967981 1.9967052-2 2h3c1.1032019-.0032948 1.9967052-.8967981 2-2v-26c-.0032948-1.1032019-.8967981-1.9967052-2-2z" fill="#0377bc"/><path id="Shape" d="m54 52v5c-.000608.3653473-.2004093.7012839-.5211465.8762314-.3207372.1749476-.7113534.1610569-1.0188535-.0362314l-9.46-5.84z" fill="#0377bc"/><g fill="#f5f5f5"><circle id="Oval" cx="27" cy="38" r="3"/><circle id="Oval" cx="38" cy="38" r="3"/><circle id="Oval" cx="49" cy="38" r="3"/></g></g><g id="Layer_2" fill="#000"><path id="Shape" d="m28 35c-2.209139 0-4 1.790861-4 4s1.790861 4 4 4 4-1.790861 4-4-1.790861-4-4-4zm0 6c-1.1045695 0-2-.8954305-2-2s.8954305-2 2-2 2 .8954305 2 2-.8954305 2-2 2z"/><path id="Shape" d="m39 35c-2.209139 0-4 1.790861-4 4s1.790861 4 4 4 4-1.790861 4-4-1.790861-4-4-4zm0 6c-1.1045695 0-2-.8954305-2-2s.8954305-2 2-2 2 .8954305 2 2-.8954305 2-2 2z"/><path id="Shape" d="m50 35c-2.209139 0-4 1.790861-4 4s1.790861 4 4 4 4-1.790861 4-4-1.790861-4-4-4zm0 6c-1.1045695 0-2-.8954305-2-2s.8954305-2 2-2 2 .8954305 2 2-.8954305 2-2 2z"/><path id="Shape" d="m57 22h-15v-19c0-1.65685425-1.3431458-3-3-3h-36c-1.65685425 0-3 1.34314575-3 3v26c0 1.6568542 1.34314575 3 3 3h1v4c.00027041.7273402.395385 1.397196 1.03182123 1.7492936.63643622.3520977 1.41385119.3309241 2.03017877-.0552936l9.222-5.694h1.716v19c0 1.6568542 1.3431458 3 3 3h22.716l9.2 5.681c.6153145.3968455 1.3982981.4257366 2.0411856.075317s1.0429034-1.0241297 1.0428144-1.756317v-4h1c1.6568542 0 3-1.3431458 3-3v-26c0-1.6568542-1.3431458-3-3-3zm-51 14v-4h1c.55228475 0 1-.4477153 1-1s-.44771525-1-1-1h-4c-.55228475 0-1-.4477153-1-1v-26c0-.55228475.44771525-1 1-1h36c.5522847 0 1 .44771525 1 1v26c0 .5522847-.4477153 1-1 1h-28c-.5522847 0-1 .4477153-1 1s.4477153 1 1 1h1.476zm52 15c0 .5522847-.4477153 1-1 1h-4c-.5522847 0-1 .4477153-1 1s.4477153 1 1 1h1l-.012 3.988-6.464-3.988h1.476c.5522847 0 1-.4477153 1-1s-.4477153-1-1-1h-28c-.5522847 0-1-.4477153-1-1v-19h19c1.6568542 0 3-1.3431458 3-3v-5h15c.5522847 0 1 .4477153 1 1z"/><path id="Shape" d="m20 18.92v3.08h-2c-.5522847 0-1 .4477153-1 1s.4477153 1 1 1h2v2c0 .5522847.4477153 1 1 1s1-.4477153 1-1v-2h2c.5522847 0 1-.4477153 1-1s-.4477153-1-1-1h-2v-3.08c3.6338264-.5244977 6.2449516-3.7674331 5.9820277-7.4294903-.2629238-3.66205717-3.3105441-6.49871293-6.9820277-6.49871293s-6.7191039 2.83665576-6.9820277 6.49871293c-.2629239 3.6620572 2.3482013 6.9049926 5.9820277 7.4294903zm1-11.92c2.7614237 0 5 2.23857625 5 5 0 2.7614237-2.2385763 5-5 5s-5-2.2385763-5-5c.0033061-2.76005315 2.2399468-4.99669388 5-5z"/></g></g></svg>